<svg xmlns="http://www.w3.org/2000/svg" fill="none" viewBox="0 0 114 90"><path fill="#FF7676" d="M0 0h114v90H0z"/><path fill="#000" d="M86.076 64.526c-5.037 0-8.924-3.772-8.924-8.74 0-4.945 3.887-8.786 8.924-8.786C91.09 47 95 50.841 95 55.786c0 4.968-3.91 8.74-8.924 8.74Zm0-.529c3.174 0 4.462-3.427 4.462-8.211 0-4.761-1.242-8.257-4.462-8.257-3.22 0-4.485 3.496-4.485 8.257 0 4.784 1.288 8.211 4.485 8.211ZM55.363 64.181v-.046c1.127-1.725 1.564-2.622 1.564-4.945v-8.165c-.115-1.587-.598-2.415-1.633-3.634v-.046h5.313l4.922 11.339 4.853-11.339h5.129v.046c-1.15 1.403-1.633 2.208-1.633 4.255v7.682c0 2.185.253 3.174.92 4.807v.046H68.84v-.046c.667-1.633.92-2.576.92-4.807v-8.924L64.08 63.675h-.644l-5.911-13.34.069 8.855c0 2.254.598 3.243 1.932 4.945v.046h-4.163ZM52.831 64.181H40.043v-.046c.599-1.633.92-2.576.92-4.715v-7.314c0-2.162-.322-3.059-.92-4.715v-.046h11.938l.85 4.439-.23.069c-1.288-1.219-3.265-3.749-4.553-3.864l-2.968-.207v7.498h1.358c1.241 0 2.392-1.426 3.311-2.3h.23v5.221h-.23c-.943-.805-2.024-2.392-3.312-2.392h-1.356v7.935l3.334-.184c1.633-.069 4.14-3.036 5.36-4.738l.23.069-1.174 5.29ZM17.956 64.181v-.046c1.127-1.725 1.564-2.622 1.564-4.945v-8.165c-.115-1.587-.598-2.415-1.633-3.634v-.046H23.2l4.922 11.339 4.853-11.339h5.129v.046c-1.15 1.403-1.633 2.208-1.633 4.255v7.682c0 2.185.253 3.174.92 4.807v.046h-5.957v-.046c.667-1.633.92-2.576.92-4.807v-8.924l-5.681 13.271h-.644l-5.911-13.34.069 8.855c0 2.254.598 3.243 1.932 4.945v.046h-4.163ZM93.412 40.801c-.62.437-2.806 1.725-6.118 1.725-5.336 0-9.43-3.565-9.43-8.556S81.912 25 87.478 25c2.6 0 4.393.46 5.842.851l.46 4.232-.23.069c-2.507-3.358-3.887-4.623-6.187-4.623-3.772 0-5.06 3.473-5.06 8.441 0 5.014 1.771 8.027 5.014 8.027 2.783 0 4.301-2.3 6.325-5.796l.23.069-.46 4.531ZM69.567 42.135c.667-1.656.92-2.553.92-4.807v-7.13c0-2.254-.253-3.151-.92-4.807v-.046h5.98v.046c-.667 1.633-.943 2.622-.943 4.807v7.13c0 2.185.276 3.174.943 4.807v.046h-5.98v-.046ZM58.32 42.526c-5.037 0-8.923-3.772-8.923-8.74 0-4.945 3.886-8.786 8.924-8.786 5.014 0 8.924 3.841 8.924 8.786 0 4.968-3.91 8.74-8.925 8.74Zm0-.529c3.175 0 4.462-3.427 4.462-8.211 0-4.761-1.241-8.257-4.461-8.257s-4.485 3.496-4.485 8.257c0 4.784 1.288 8.211 4.485 8.211ZM42.605 42.181h-5.98v-.046c.667-1.61.943-2.576.943-4.807v-11.5l-1.127.069c-1.38.115-3.473 3.542-4.692 5.382l-.253-.069 1.012-5.865h14.214l1.012 5.865-.253.069c-1.22-1.84-3.358-5.267-4.692-5.382l-1.104-.069v11.5c0 2.208.253 3.151.92 4.807v.046ZM29.34 29.922l-.253.069c-1.817-3.013-3.404-4.462-5.128-4.462-1.38 0-2.392.874-2.392 2.231 0 1.863 2.07 2.691 4.209 3.726 2.276 1.173 4.622 2.576 4.622 5.888 0 3.772-3.012 5.152-6.37 5.152-1.932 0-3.75-.46-5.014-1.035l-.598-4.692.23-.069c2.207 3.68 3.956 5.267 6.026 5.267 1.84 0 2.828-1.196 2.828-2.668 0-2.047-1.954-2.944-4.024-3.979-2.346-1.173-4.715-2.461-4.715-5.543 0-3.519 3.059-4.807 6.325-4.807 1.288 0 2.553.207 3.634.552l.62 4.37Z"/></svg>