<?xml version="1.0" standalone="no"?>
<!DOCTYPE svg PUBLIC "-//W3C//DTD SVG 20010904//EN"
 "http://www.w3.org/TR/2001/REC-SVG-20010904/DTD/svg10.dtd">
<svg version="1.0" xmlns="http://www.w3.org/2000/svg"
 width="700.000000pt" height="700.000000pt" viewBox="0 0 700.000000 700.000000"
 preserveAspectRatio="xMidYMid meet">
<metadata>
Created by potrace 1.14, written by Peter Selinger 2001-2017
</metadata>
<g transform="translate(0.000000,700.000000) scale(0.100000,-0.100000)"
fill="#000000" stroke="none">
<path d="M3395 5124 c-276 -40 -389 -70 -540 -144 -232 -113 -390 -294 -450
-515 -23 -82 -31 -327 -15 -419 52 -296 246 -528 615 -738 44 -25 199 -105
345 -178 310 -155 409 -217 505 -314 102 -103 144 -201 145 -331 1 -205 -125
-367 -326 -420 -77 -20 -241 -20 -319 0 -268 70 -509 298 -847 800 -67 99
-127 181 -134 183 -43 10 -42 2 22 -457 42 -296 67 -447 76 -452 34 -22 169
-73 275 -103 398 -115 887 -118 1213 -10 250 84 439 238 535 439 20 41 48 118
62 172 22 85 26 120 27 258 0 96 -5 184 -12 220 -56 258 -171 447 -378 616
-130 106 -287 199 -593 351 -333 166 -449 236 -529 321 -77 82 -106 152 -107
252 0 69 5 89 31 145 103 216 385 294 629 175 188 -92 392 -293 631 -622 95
-130 126 -156 140 -118 5 11 -112 805 -119 811 -7 6 -199 46 -282 60 -96 15
-528 28 -600 18z"/>
</g>
</svg>
